<?xml version="1.0" encoding="utf-8"?>
<!-- Generator: Adobe Illustrator 25.4.1, SVG Export Plug-In . SVG Version: 6.00 Build 0)  -->
<svg version="1.1" id="Layer_1" focusable="false" xmlns="http://www.w3.org/2000/svg" xmlns:xlink="http://www.w3.org/1999/xlink"
	 x="0px" y="0px" viewBox="0 0 384 384" style="enable-background:new 0 0 384 384;" xml:space="preserve">
<style type="text/css">
	.st0{fill:#FFFFFF;}
</style>
<path class="st0" d="M368,160H224V16c0-8.8-7.2-16-16-16h-32c-8.8,0-16,7.2-16,16v144H16c-8.8,0-16,7.2-16,16v32c0,8.8,7.2,16,16,16
	h144v144c0,8.8,7.2,16,16,16h32c8.8,0,16-7.2,16-16V224h144c8.8,0,16-7.2,16-16v-32C384,167.2,376.8,160,368,160z"/>
</svg>
