<?xml version="1.0" encoding="utf-8"?>
<!-- Generator: Adobe Illustrator 25.4.1, SVG Export Plug-In . SVG Version: 6.00 Build 0)  -->
<svg version="1.1" id="Layer_1" xmlns="http://www.w3.org/2000/svg" xmlns:xlink="http://www.w3.org/1999/xlink" x="0px" y="0px"
	 viewBox="0 0 512 512" style="enable-background:new 0 0 512 512;" xml:space="preserve">
<style type="text/css">
	.st0{fill:#FFFFFF;}
</style>
<g>
	<path class="st0" d="M512,256.2c0,75.8,0,151.5,0,227.3c0,19.3-9,28.3-28.2,28.3c-151.5,0-303.1-0.2-454.6,0.2
		c-19.6,0-29.4-12.2-29.2-29c0.5-48,0.2-95.9,0.2-143.9c0-70.6,0-141.2,0-211.9c0-33.1,0-66.2,0-99.4C0.2,9.6,9.8,0,28,0
		c52,0,103.9,0,155.9,0c66.2,0,132.5,0,198.7,0c33.9,0,67.8,0,101.6,0C502.6,0,512,9.3,512,27.7C512,103.9,512,180,512,256.2z
		 M487.3,487.4c0-154.5,0-308.4,0-462.3c-24.4,0-48.4,0-73,0c0,32.6,0,64.6,0,97.2c-32.7,0-64.7,0-97.2,0c0,32.6,0,64.7,0,97.4
		c-32.6,0-64.8,0-97.6,0c0,32.8,0,65,0,97.7c-32.7,0-64.7,0-97.4,0c0,32.5,0,64.5,0,97.2c-32.6,0-64.7,0-96.9,0
		c0,24.6,0,48.6,0,72.9C179.4,487.4,333.1,487.4,487.3,487.4z"/>
	<path class="st0" d="M463.3,451.1c-0.1,6.7-6,12.3-12.6,12.1c-6.4-0.2-11.8-5.9-11.8-12.3c0.1-6.7,6-12.3,12.6-12.1
		C458.1,439.1,463.4,444.7,463.3,451.1z"/>
	<path class="st0" d="M450.9,170.7c-6.7-0.2-12.2-6.1-11.9-12.7c0.3-6.5,6-11.8,12.4-11.6c6.7,0.2,12.2,6.1,11.9,12.7
		C463,165.5,457.3,170.8,450.9,170.7z"/>
	<path class="st0" d="M317.1,304.7c0,6.7-5.8,12.4-12.5,12.2c-6.5-0.2-11.9-5.7-11.9-12.2c0-6.7,5.8-12.4,12.5-12.2
		C311.7,292.7,317.1,298.3,317.1,304.7z"/>
	<path class="st0" d="M158.6,463.2c-6.7-0.1-12.3-5.9-12.1-12.6c0.2-6.5,5.8-11.9,12.2-11.8c6.7,0.1,12.3,5.9,12.1,12.5
		C170.6,457.8,165,463.2,158.6,463.2z"/>
	<path class="st0" d="M365.7,353.4c0,6.8-4.9,11.9-11.7,12.1c-6.9,0.2-12.5-5.1-12.5-11.9c0-6.7,5.6-12.3,12.3-12.2
		C360.5,341.5,365.7,346.8,365.7,353.4z"/>
	<path class="st0" d="M402.6,219.3c-7,0.1-12.3-5.1-12.2-12.1c0-6.6,5.2-11.9,11.8-12.1c6.7-0.1,12.4,5.5,12.3,12.2
		C414.5,213.9,409.2,219.2,402.6,219.3z"/>
	<path class="st0" d="M353.6,244c6.8,0,11.9,4.9,12.1,11.6c0.2,6.9-5.1,12.5-11.9,12.5c-6.7,0.1-12.3-5.6-12.2-12.3
		C341.6,249.2,346.9,244,353.6,244z"/>
	<path class="st0" d="M255.9,365.5c-7-0.1-12-5.5-11.8-12.6c0.2-6.6,5.7-11.8,12.3-11.6c6.5,0.1,11.9,5.6,11.9,12.1
		C268.4,360.2,262.8,365.6,255.9,365.5z"/>
	<path class="st0" d="M219.5,402.4c-0.1,6.6-5.4,11.9-11.9,11.9c-6.7,0-12.3-5.6-12.2-12.4c0.1-6.8,5.7-12,12.6-11.8
		C214.6,390.5,219.6,395.7,219.5,402.4z"/>
	<path class="st0" d="M402.6,390.2c6.6,0.1,11.9,5.4,11.9,11.9c0,6.7-5.6,12.3-12.3,12.2c-6.8-0.1-12-5.7-11.8-12.6
		C390.6,395.1,395.8,390.1,402.6,390.2z"/>
	<path class="st0" d="M244.2,255.9c0.1-6.9,5.4-12.1,12.4-11.9c6.6,0.2,11.8,5.6,11.7,12.1c-0.1,6.7-5.9,12.2-12.6,12
		C249.2,267.9,244.1,262.5,244.2,255.9z"/>
	<path class="st0" d="M365.7,158.3c0.1,6.9-5.4,12.5-12.1,12.4c-6.4,0-11.9-5.5-12.1-12c-0.1-6.7,5.5-12.5,12.2-12.4
		C360.3,146.3,365.6,151.7,365.7,158.3z"/>
	<path class="st0" d="M450.9,244c6.9-0.1,12.5,5.3,12.4,12.1c0,6.5-5.5,11.9-12,12.1c-6.7,0.1-12.4-5.5-12.4-12.2
		C439,249.4,444.3,244.1,450.9,244z"/>
	<path class="st0" d="M390.4,304.6c0-6.6,5.3-12,11.8-12.1c6.7-0.1,12.4,5.5,12.3,12.3c-0.1,6.5-5.5,12-11.9,12.1
		C395.9,317.1,390.4,311.5,390.4,304.6z"/>
	<path class="st0" d="M450.9,73c-6.6-0.1-11.9-5.5-11.9-12c0-6.7,5.8-12.3,12.5-12.2c6.5,0.1,11.9,5.7,11.9,12.1
		C463.4,67.7,457.8,73.1,450.9,73z"/>
	<path class="st0" d="M158.9,365.5c-6.8,0.1-12.5-5.5-12.4-12.2c0.1-6.5,5.5-11.9,12-12c6.7-0.1,12.4,5.6,12.3,12.2
		C170.8,360.1,165.5,365.4,158.9,365.5z"/>
	<path class="st0" d="M451,365.5c-6.6-0.1-12-5.3-12-11.9c-0.1-6.7,5.6-12.4,12.3-12.3c6.7,0.1,12.3,5.9,12,12.5
		C463.1,360.5,457.7,365.6,451,365.5z"/>
	<path class="st0" d="M304.7,390.2c6.9-0.1,12.5,5.4,12.4,12.1c-0.1,6.5-5.5,11.9-12,12.1c-6.7,0.1-12.4-5.5-12.4-12.2
		C292.8,395.7,298.1,390.3,304.7,390.2z"/>
	<path class="st0" d="M73.2,450.8c0.1,6.8-5.4,12.4-12.2,12.4c-6.4-0.1-11.9-5.6-12-12c-0.1-6.7,5.6-12.4,12.3-12.4
		C67.9,438.9,73.2,444.2,73.2,450.8z"/>
	<path class="st0" d="M256.3,438.8c6.7,0.1,12.3,5.9,12,12.6c-0.2,6.5-5.8,11.9-12.2,11.8c-6.7,0-12.1-5.7-11.9-12.5
		C244.3,444,249.8,438.7,256.3,438.8z"/>
	<path class="st0" d="M365.7,451.2c-0.1,6.6-5.4,12-11.9,12c-6.7,0.1-12.3-5.7-12.2-12.4c0.1-6.5,5.5-11.9,12-12
		C360.3,438.7,365.8,444.3,365.7,451.2z"/>
</g>
</svg>
